<?xml version="1.0" standalone="no"?>
<!DOCTYPE svg PUBLIC "-//W3C//DTD SVG 20010904//EN"
 "http://www.w3.org/TR/2001/REC-SVG-20010904/DTD/svg10.dtd">
<svg version="1.0" xmlns="http://www.w3.org/2000/svg"
 width="512.000000pt" height="512.000000pt" viewBox="0 0 512.000000 512.000000"
 preserveAspectRatio="xMidYMid meet">
<metadata>
Created by potrace 1.11, written by Peter Selinger 2001-2013
</metadata>
<g transform="translate(0.000000,512.000000) scale(0.100000,-0.100000)"
fill="#000000" stroke="none">
<path d="M377 5105 c-173 -47 -316 -193 -362 -366 -22 -81 -22 -4277 0 -4358
46 -176 190 -320 366 -366 81 -22 4277 -22 4358 0 176 46 320 190 366 366 22
81 22 4277 0 4358 -46 176 -190 320 -366 366 -77 21 -4287 21 -4362 0z m3452
-891 c81 -5 97 -9 118 -30 31 -31 29 -66 -8 -144 -17 -36 -42 -93 -55 -128
-13 -35 -33 -77 -44 -93 -28 -38 -94 -76 -148 -85 -24 -4 -227 -1 -450 6 -224
8 -423 14 -442 14 -33 1 -35 -1 -38 -34 -8 -91 -59 -422 -122 -780 -137 -787
-194 -1234 -206 -1625 -3 -99 -10 -201 -15 -226 -28 -126 -176 -195 -437 -201
-110 -3 -111 -3 -141 26 -47 45 -56 106 -55 371 0 245 12 354 75 725 99 578
297 1301 450 1641 22 48 39 90 39 94 0 4 -30 4 -67 1 -159 -16 -332 -52 -543
-113 -385 -112 -431 -123 -502 -123 -80 0 -94 13 -77 74 15 53 118 185 202
257 240 208 547 340 877 378 79 9 1427 4 1589 -5z"/>
</g>
</svg>
